<svg width="94" height="94" viewBox="0 0 94 94" fill="none" xmlns="http://www.w3.org/2000/svg">
<g id="smart_display">
<mask id="mask0_655_1620" style="mask-type:alpha" maskUnits="userSpaceOnUse" x="0" y="0" width="94" height="94">
<rect id="Bounding box" width="94" height="94" fill="#D9D9D9"/>
</mask>
<g mask="url(#mask0_655_1620)">
<path id="smart_display_2" d="M37.2083 64.6248L64.6249 46.9998L37.2083 29.3748V64.6248ZM15.6666 78.3332C13.5124 78.3332 11.6683 77.5662 10.1343 76.0321C8.60027 74.4981 7.83325 72.654 7.83325 70.4998V23.4998C7.83325 21.3457 8.60027 19.5016 10.1343 17.9675C11.6683 16.4335 13.5124 15.6665 15.6666 15.6665H78.3333C80.4874 15.6665 82.3315 16.4335 83.8655 17.9675C85.3996 19.5016 86.1666 21.3457 86.1666 23.4998V70.4998C86.1666 72.654 85.3996 74.4981 83.8655 76.0321C82.3315 77.5662 80.4874 78.3332 78.3333 78.3332H15.6666ZM15.6666 70.4998H78.3333V23.4998H15.6666V70.4998Z" fill="#FDD51E"/>
</g>
</g>
</svg>
