<svg width="95" height="94" viewBox="0 0 95 94" fill="none" xmlns="http://www.w3.org/2000/svg">
<g id="sound_sampler">
<mask id="mask0_655_712" style="mask-type:alpha" maskUnits="userSpaceOnUse" x="0" y="0" width="95" height="94">
<rect id="Bounding box" x="0.5" width="94" height="94" fill="#D9D9D9"/>
</mask>
<g mask="url(#mask0_655_712)">
<path id="sound_sampler_2" d="M17.0481 71.773C14.3064 68.3786 12.1686 64.5762 10.6345 60.3657C9.10051 56.1553 8.3335 51.7001 8.3335 47.0001C8.3335 36.7515 11.7116 27.939 18.4679 20.5626C25.2241 13.1862 33.596 9.00846 43.5835 8.0293V15.8626C35.7502 16.7765 29.2224 20.171 24.0002 26.046C18.7779 31.921 16.1668 38.9057 16.1668 47.0001C16.1668 50.6557 16.7217 54.0991 17.8314 57.3303C18.9411 60.5616 20.5404 63.5154 22.6293 66.1918L17.0481 71.773ZM47.5002 86.1668C42.7349 86.1668 38.2307 85.3835 33.9877 83.8168C29.7446 82.2501 25.9259 80.0633 22.5314 77.2564L28.0147 71.6751C30.6911 73.764 33.6776 75.396 36.9741 76.571C40.2706 77.746 43.7793 78.3335 47.5002 78.3335C51.221 78.3335 54.7297 77.746 58.0262 76.571C61.3227 75.396 64.3092 73.764 66.9856 71.6751L72.4689 77.2564C69.0745 80.0633 65.2557 82.2501 61.0127 83.8168C56.7696 85.3835 52.2654 86.1668 47.5002 86.1668ZM77.9522 71.773L72.371 66.1918C74.4599 63.5154 76.0592 60.5616 77.1689 57.3303C78.2786 54.0991 78.8335 50.6557 78.8335 47.0001C78.8335 38.9057 76.2224 31.921 71.0002 26.046C65.7779 20.171 59.2502 16.7765 51.4168 15.8626V8.0293C61.4043 9.00846 69.7762 13.1862 76.5325 20.5626C83.2887 27.939 86.6668 36.7515 86.6668 47.0001C86.6668 51.7001 85.8998 56.1553 84.3658 60.3657C82.8318 64.5762 80.6939 68.3786 77.9522 71.773ZM37.7085 64.6251V29.3751L65.1252 47.0001L37.7085 64.6251Z" fill="#FDD51E"/>
</g>
</g>
</svg>
