<svg width="94" height="94" viewBox="0 0 94 94" fill="none" xmlns="http://www.w3.org/2000/svg">
<g id="temp_preferences_custom">
<mask id="mask0_655_581" style="mask-type:alpha" maskUnits="userSpaceOnUse" x="0" y="0" width="94" height="94">
<rect id="Bounding box" width="94" height="94" fill="#D9D9D9"/>
</mask>
<g mask="url(#mask0_655_581)">
<path id="temp_preferences_custom_2" d="M74.4166 35.2498L69.5208 24.479L58.75 19.5832L69.5208 14.6873L74.4166 3.9165L79.3125 14.6873L90.0833 19.5832L79.3125 24.479L74.4166 35.2498ZM74.4166 90.0832L69.5208 79.3123L58.75 74.4165L69.5208 69.5207L74.4166 58.7498L79.3125 69.5207L90.0833 74.4165L79.3125 79.3123L74.4166 90.0832ZM35.25 78.3332L25.4583 56.7915L3.91663 46.9998L25.4583 37.2082L35.25 15.6665L45.0416 37.2082L66.5833 46.9998L45.0416 56.7915L35.25 78.3332ZM35.25 59.3373L39.1666 50.9165L47.5875 46.9998L39.1666 43.0832L35.25 34.6623L31.3333 43.0832L22.9125 46.9998L31.3333 50.9165L35.25 59.3373Z" fill="#FDD51E"/>
</g>
</g>
</svg>
